<svg width="100" height="100" viewBox="0 0 100 100" fill="none" xmlns="http://www.w3.org/2000/svg">
<path fill-rule="evenodd" clip-rule="evenodd" d="M45.8333 20.8333C45.8333 18.6232 44.9554 16.5036 43.3926 14.9408C41.8298 13.378 39.7101 12.5 37.5 12.5H20.8333C18.6232 12.5 16.5036 13.378 14.9408 14.9408C13.378 16.5036 12.5 18.6232 12.5 20.8333V37.5C12.5 39.7101 13.378 41.8298 14.9408 43.3926C16.5036 44.9554 18.6232 45.8333 20.8333 45.8333H37.5C39.7101 45.8333 41.8298 44.9554 43.3926 43.3926C44.9554 41.8298 45.8333 39.7101 45.8333 37.5V20.8333ZM37.5 20.8333H20.8333V37.5H37.5V20.8333Z" fill="black"/>
<path d="M79.1667 54.1667H87.5V87.5H54.1667V79.1667H73.275L50.925 56.8167C50.166 56.0308 49.746 54.9783 49.7555 53.8858C49.765 52.7933 50.2032 51.7483 50.9758 50.9758C51.7483 50.2032 52.7933 49.765 53.8858 49.7555C54.9783 49.746 56.0308 50.166 56.8167 50.925L79.1667 73.275V54.1667Z" fill="black"/>
</svg>
