<svg width="100" height="100" viewBox="0 0 100 100" fill="none" xmlns="http://www.w3.org/2000/svg">
<path d="M20.8333 45.8333H12.5V12.5H45.8333V20.8333H26.725L49.075 43.1833C49.834 43.9692 50.254 45.0217 50.2445 46.1142C50.235 47.2067 49.7968 48.2517 49.0242 49.0242C48.2517 49.7968 47.2067 50.235 46.1142 50.2445C45.0217 50.254 43.9692 49.834 43.1833 49.075L20.8333 26.725V45.8333Z" fill="currentColor"/>
<path fill-rule="evenodd" clip-rule="evenodd" d="M79.1667 54.1667C81.3768 54.1667 83.4964 55.0446 85.0592 56.6074C86.622 58.1702 87.5 60.2899 87.5 62.5V79.1667C87.5 81.3768 86.622 83.4964 85.0592 85.0592C83.4964 86.622 81.3768 87.5 79.1667 87.5H62.5C60.2899 87.5 58.1703 86.622 56.6075 85.0592C55.0447 83.4964 54.1667 81.3768 54.1667 79.1667V62.5C54.1667 60.2899 55.0447 58.1702 56.6075 56.6074C58.1703 55.0446 60.2899 54.1667 62.5 54.1667H79.1667ZM79.1667 62.5V79.1667H62.5V62.5H79.1667Z" fill="currentColor"/>
</svg>
