<svg width="100" height="100" viewBox="0 0 100 100" fill="none" xmlns="http://www.w3.org/2000/svg">
<path d="M45.8333 70.8333H54.1666V54.1667H70.8333V45.8333H54.1666V29.1667H45.8333V45.8333H29.1667V54.1667H45.8333V70.8333ZM50 91.6667C44.2361 91.6667 38.8194 90.5722 33.75 88.3833C28.6805 86.1944 24.2708 83.2264 20.5208 79.4792C16.7708 75.7319 13.8028 71.3222 11.6167 66.25C9.43054 61.1778 8.3361 55.7611 8.33332 50C8.33054 44.2389 9.42499 38.8222 11.6167 33.75C13.8083 28.6778 16.7764 24.2681 20.5208 20.5208C24.2653 16.7736 28.675 13.8056 33.75 11.6167C38.825 9.42778 44.2416 8.33334 50 8.33334C55.7583 8.33334 61.175 9.42778 66.25 11.6167C71.325 13.8056 75.7347 16.7736 79.4792 20.5208C83.2236 24.2681 86.193 28.6778 88.3875 33.75C90.5819 38.8222 91.675 44.2389 91.6667 50C91.6583 55.7611 90.5639 61.1778 88.3833 66.25C86.2028 71.3222 83.2347 75.7319 79.4792 79.4792C75.7236 83.2264 71.3139 86.1958 66.25 88.3875C61.1861 90.5792 55.7694 91.6722 50 91.6667Z" fill="currentColor"/>
</svg>
