<svg width="100" height="100" viewBox="0 0 100 100" fill="none" xmlns="http://www.w3.org/2000/svg">
<path d="M50 92.6893C73.3125 92.6893 92.6893 73.3125 92.6893 50C92.6893 26.6464 73.2696 7.31071 49.9571 7.31071C26.6054 7.31071 7.3125 26.6464 7.3125 50C7.3125 73.3125 26.6464 92.6893 50 92.6893ZM39.6625 74.8607C36.6929 74.8607 34.9768 73.2286 34.85 70.2571L33.3018 36.1054H30.7911C30.2386 36.0971 29.7111 35.8739 29.3204 35.4832C28.9297 35.0925 28.7065 34.565 28.6982 34.0125C28.6982 32.8411 29.6625 31.9196 30.7911 31.9196H40.2911V28.5304C40.2911 25.2643 42.4268 23.2143 45.5232 23.2143H54.2696C57.3679 23.2143 59.5018 25.2643 59.5018 28.5304V31.9196H69.0018C70.1321 31.9196 71.0536 32.8411 71.0536 34.0125C71.0536 35.1429 70.1321 36.1054 69.0036 36.1054H66.575L65.0268 70.2571C64.8589 73.2286 63.1429 74.8607 60.1714 74.8607H39.6625ZM44.5196 31.9196H55.275V29.325C55.275 28.1946 54.4804 27.4411 53.3071 27.4411H46.4446C45.3143 27.4411 44.5196 28.1946 44.5196 29.325V31.9196ZM42.2161 70.2571C43.2643 70.2571 43.8911 69.5446 43.85 68.5411L42.8446 40.5C42.7607 39.4946 42.1339 38.825 41.1714 38.825C40.125 38.825 39.4554 39.5375 39.4964 40.5L40.6268 68.5821C40.6679 69.5875 41.2964 70.2571 42.2161 70.2571ZM49.9179 70.2143C50.9643 70.2143 51.6339 69.5446 51.6339 68.5411V40.5C51.6339 39.5357 50.9643 38.825 49.9179 38.825C48.8714 38.825 48.2036 39.5375 48.2036 40.5V68.5411C48.2036 69.5446 48.9143 70.2143 49.9179 70.2143ZM57.6607 70.2571C58.5821 70.2571 59.2089 69.5875 59.25 68.5821L60.3804 40.5C60.4232 39.5357 59.7107 38.825 58.6661 38.825C57.7446 38.825 57.075 39.4946 57.0321 40.5L56.0286 68.5411C55.9857 69.5446 56.6143 70.2571 57.6607 70.2571Z" fill="currentColor"/>
</svg>
