<svg width="100" height="100" viewBox="0 0 100 100" fill="none" xmlns="http://www.w3.org/2000/svg">
<path d="M20.7857 26.1857L23.4643 87.3321C23.675 92.5643 26.8143 95.4107 31.9607 95.4107H68.0804C73.2286 95.4107 76.3661 92.5643 76.5768 87.3321L79.2554 26.1857H84.0679C85.7839 26.1857 87.1643 24.7625 87.1643 23.0464C87.1643 21.3322 85.7839 19.8661 84.0679 19.8661H66.8661V13.8804C66.8661 8.14822 63.0571 4.58929 57.6589 4.58929H42.2571C36.8589 4.58929 33.0911 8.14822 33.0911 13.8804V19.8661H15.9732C14.3 19.8661 12.8339 21.3304 12.8339 23.0464C12.8339 24.7625 14.2982 26.1857 15.9732 26.1857H20.7857ZM38.7839 13.8822C38.7839 11.4964 40.5411 9.82144 43.0518 9.82144H56.9054C59.4589 9.82144 61.2161 11.4964 61.2161 13.8804V19.8661H38.7857L38.7839 13.8822ZM63.6018 86.8714C61.9696 86.8714 60.8393 85.45 60.8821 83.7339L62.5964 35.1839C62.6821 33.5107 63.8946 32.1304 65.4018 32.1304C66.95 32.1304 68.2054 33.4697 68.1643 35.1839L66.2804 83.775C66.2393 85.575 65.15 86.8714 63.6018 86.8714ZM36.4411 86.8714C34.8911 86.8714 33.8036 85.575 33.7625 83.775L31.8786 35.1857C31.8357 33.4268 33.0929 32.1286 34.6393 32.1286C36.1464 32.1286 37.4018 33.5107 37.4429 35.1839L39.1607 83.7339C39.2018 85.4482 38.0732 86.8714 36.4411 86.8714ZM52.8857 83.7339C52.8857 85.4482 51.5464 86.8714 50.0393 86.8714C48.5339 86.8714 47.1946 85.45 47.1946 83.7339V35.1839C47.1946 33.5107 48.5339 32.1304 50.0393 32.1304C51.5464 32.1304 52.9286 33.5107 52.9286 35.1839L52.8857 83.7339Z" fill="currentColor"/>
</svg>
